<svg width="375" height="812" viewBox="0 0 375 812" fill="none" xmlns="http://www.w3.org/2000/svg">
<mask id="mask0_541_197" style="mask-type:luminance" maskUnits="userSpaceOnUse" x="0" y="0" width="375" height="812">
<path d="M345 0H30C13.4315 0 0 13.4315 0 30V782C0 798.569 13.4315 812 30 812H345C361.569 812 375 798.569 375 782V30C375 13.4315 361.569 0 345 0Z" fill="white"/>
</mask>
<g mask="url(#mask0_541_197)">
<path d="M140 377C304.581 377 438 267.534 438 132.5C438 -2.53362 304.581 -112 140 -112C-24.5809 -112 -158 -2.53362 -158 132.5C-158 267.534 -24.5809 377 140 377Z" fill="#53B97C"/>
<path d="M321.338 445.994C321.338 445.994 288.957 453.903 249.014 453.903C209.071 453.903 176.691 445.994 176.691 445.994C176.691 445.994 209.071 438.084 249.014 438.084C288.957 438.084 321.338 445.994 321.338 445.994Z" fill="#CBB59B"/>
<path d="M227.822 442.395C228.151 441.837 228.392 441.07 227.98 440.276C226.782 437.958 221.991 429.92 221.326 426.981C220.811 424.698 221.569 421.226 221.934 419.789L208.566 410.21C205.117 412.879 199.42 418.774 198.233 420.013L227.822 442.395Z" fill="#46689C"/>
<path d="M225.538 445.305L195.948 422.923L198.233 420.013L227.822 442.395L225.538 445.305Z" fill="white"/>
<path d="M218.195 425.911L218.055 425.966C217.71 426.112 217.309 426.433 217.533 426.846C217.646 427.057 217.868 427.189 218.085 427.295C218.833 427.663 219.649 427.844 220.472 427.958C221.357 428.083 222.305 428.209 223.173 427.921C224.069 427.624 223.948 426.621 223.132 426.23C221.72 425.556 219.689 425.345 218.195 425.911Z" fill="white"/>
<path d="M219.194 429.152L219.055 429.207C218.709 429.353 218.308 429.674 218.532 430.087C218.645 430.299 218.867 430.429 219.084 430.537C219.832 430.904 220.648 431.084 221.471 431.2C222.356 431.323 223.305 431.45 224.172 431.162C225.068 430.865 224.946 429.861 224.131 429.471C222.719 428.797 220.688 428.584 219.194 429.152Z" fill="white"/>
<path d="M221.126 432.251L220.986 432.307C220.642 432.453 220.24 432.774 220.463 433.188C220.577 433.398 220.799 433.528 221.017 433.635C221.765 434.004 222.579 434.183 223.403 434.299C224.288 434.423 225.236 434.549 226.104 434.261C227 433.964 226.879 432.961 226.062 432.571C224.652 431.896 222.62 431.685 221.126 432.251Z" fill="white"/>
<path d="M261.714 372.622L243.995 353.95L204.784 408.46L223.975 423.031L261.714 372.622Z" fill="#6A262D"/>
<path d="M273.565 307.225L248.23 306.127C248.938 319.838 249.845 344.611 247.468 349.669C247.398 349.821 246.87 350.619 246.009 351.89L265.941 371.14C265.941 371.14 273.884 359.317 274.978 354.773C277.761 343.211 273.523 309.531 273.565 307.225Z" fill="#6A262D"/>
<path d="M224.327 306.49C224.327 306.49 244.194 362.62 249.048 375.879L253.335 431.44L274.771 427.948L274.521 421.6L272.413 367.465L255.833 307.714L230.769 306.746L224.327 306.49Z" fill="#864549"/>
<path d="M269.538 375.217C268.079 377.744 265.197 377.534 263.029 375.005C261.868 373.65 260.941 372.002 260.597 370.176C260.252 368.349 260.539 366.338 261.569 364.866C262.6 363.395 264.418 362.576 266.043 363.067C267.969 363.648 269.172 365.781 269.812 367.875C270.336 369.586 270.613 371.437 270.261 373.197C270.101 373.999 269.852 374.672 269.538 375.217Z" fill="#9C5B61"/>
<path d="M292.533 440.55C292.394 439.918 292.047 439.192 291.2 438.874C288.727 437.944 279.683 435.136 277.179 433.391C275.236 432.037 273.421 428.962 272.708 427.654L256.262 429.354C255.537 433.608 255.355 441.738 255.323 443.439L292.533 440.55Z" fill="#46689C"/>
<path d="M292.834 444.216L255.626 447.105L255.323 443.439L292.533 440.55L292.834 444.216Z" fill="white"/>
<path d="M274.13 434.662L274.065 434.794C273.91 435.13 273.833 435.633 274.28 435.793C274.509 435.874 274.762 435.825 274.996 435.761C275.802 435.541 276.528 435.138 277.216 434.681C277.956 434.189 278.744 433.658 279.188 432.873C279.65 432.061 278.873 431.397 278.002 431.645C276.497 432.075 274.848 433.256 274.13 434.662Z" fill="white"/>
<path d="M277.088 436.408L277.023 436.541C276.867 436.876 276.79 437.379 277.237 437.539C277.466 437.621 277.72 437.571 277.954 437.508C278.759 437.288 279.485 436.885 280.174 436.428C280.913 435.936 281.702 435.405 282.146 434.619C282.607 433.808 281.83 433.144 280.959 433.392C279.453 433.821 277.805 435.004 277.088 436.408Z" fill="white"/>
<path d="M280.638 437.435L280.573 437.568C280.417 437.903 280.34 438.407 280.787 438.566C281.016 438.648 281.269 438.598 281.503 438.535C282.308 438.315 283.034 437.912 283.723 437.454C284.463 436.964 285.251 436.432 285.696 435.647C286.156 434.836 285.38 434.171 284.509 434.419C283.003 434.848 281.355 436.031 280.638 437.435Z" fill="white"/>
<path d="M224.327 306.49C224.327 306.49 244.194 362.62 249.048 375.879L253.335 431.44L274.771 427.948L274.521 421.6L257.757 422.597C257.757 422.597 254.216 377.502 253.176 372.669C252.226 368.264 233.99 315.986 230.769 306.746L224.327 306.49Z" fill="#6A262D"/>
<path d="M270.418 219.119C270.418 219.119 277.729 223.051 279.92 225.946C282.112 228.841 287.982 252.381 287.982 252.381C287.982 252.381 298.621 267.705 299.355 271.018C300.089 274.332 295.687 287.632 292.384 288.87C289.083 290.108 270.418 286.085 270.418 286.085L263.465 252.381L270.418 219.119Z" fill="#F1435B"/>
<path d="M236.035 215.717L222.306 219.627C222.306 219.627 215.251 273.774 215.251 277.08C215.251 280.385 217.468 290.841 217.468 290.841C217.468 290.841 213.325 302.398 215.251 304.599C217.176 306.8 238.618 312.537 257.063 312.145C275.508 311.752 279.877 304.676 279.912 303.361C279.976 300.884 275.558 293.1 275.558 293.1C275.558 293.1 280.152 285.614 279.912 282.586C279.671 279.56 270.418 219.119 270.418 219.119L262.746 217.716L236.035 215.717Z" fill="#F1435B"/>
<path d="M270.28 227.74L272.024 249.653L274.771 247.711L270.28 227.74Z" fill="#EF2D2E"/>
<path d="M262.746 217.716C260.815 221.129 257.311 225.421 251.668 225.907C244.311 226.548 238.367 219.137 236.035 215.717C239.409 214.775 242.574 214.042 242.574 214.042L255.234 214.59C255.234 214.59 259.178 216.088 262.746 217.716Z" fill="#F68672"/>
<path d="M256.199 218.833L251.824 221.592C251.824 221.592 244.291 216.889 242.571 214.039L242.473 212.943L242.107 206.39L255.379 202.41C255.379 202.41 255.144 204.756 255.056 207.75C254.941 211.543 255.065 216.362 256.199 218.833Z" fill="#F68672"/>
<path d="M255.056 207.75C251.568 209.639 245.277 212.998 244.213 213.351C243.638 213.534 243.024 213.299 242.473 212.943L242.107 206.39L255.379 202.41C255.379 202.41 255.144 204.756 255.056 207.75Z" fill="#F36269"/>
<path d="M258.261 201.232C258.261 201.232 257.901 202.141 256.419 203.342H256.416C256.114 203.588 255.761 203.848 255.357 204.113C253.811 205.124 239.516 210.529 237.366 210.148C235.216 209.765 233.501 202.246 233.422 201.461C232.935 196.636 231.665 181.738 231.665 181.738C237.699 165.824 256.365 175.01 258.458 176.689C260.552 178.368 258.261 201.232 258.261 201.232Z" fill="#F68672"/>
<path d="M256.417 203.342C256.114 203.588 255.761 203.848 255.357 204.113C253.812 205.124 239.516 210.529 237.367 210.148C235.216 209.765 233.501 202.246 233.422 201.461C234.627 204.782 235.954 209.361 237.491 209.283C239.807 209.167 254.673 204.164 256.417 203.342Z" fill="#F9AA7F"/>
<path d="M233.172 186.443C233.172 186.443 235.502 182.802 237.039 184.065C238.578 185.328 237.941 185.519 237.941 185.519L233.172 186.443Z" fill="#F46F2E"/>
<path d="M253.495 182.998C253.495 182.998 248.064 178.149 246.373 180.333C245.385 181.608 246.27 182.278 246.27 182.278L253.495 182.998Z" fill="#F46F2E"/>
<path d="M234.716 190.825C234.667 191.949 235.196 192.885 235.896 192.915C236.596 192.945 237.202 192.058 237.251 190.934C237.299 189.811 236.771 188.874 236.071 188.844C235.371 188.814 234.764 189.7 234.716 190.825Z" fill="#121414"/>
<path d="M233.671 189.79C233.671 189.79 234.089 190.41 234.806 190.736C235.522 191.063 236.265 190.973 236.265 190.973C236.265 190.973 235.845 190.353 235.13 190.027C234.413 189.7 233.671 189.79 233.671 189.79Z" fill="white"/>
<path d="M250.292 189.213C250.233 190.578 249.495 191.656 248.645 191.619C247.795 191.582 247.154 190.445 247.212 189.08C247.271 187.714 248.009 186.637 248.86 186.673C249.71 186.711 250.351 187.847 250.292 189.213Z" fill="#121414"/>
<path d="M251.666 188.071C251.666 188.071 251.093 188.776 250.192 189.097C249.291 189.417 248.402 189.23 248.402 189.23C248.402 189.23 248.974 188.524 249.876 188.204C250.777 187.884 251.666 188.071 251.666 188.071Z" fill="white"/>
<path d="M246.854 202.97C245.551 203.554 243.991 203.533 242.706 202.911C243.132 203.593 243.752 204.012 244.555 204.016C245.36 204.02 246.286 203.539 246.854 202.97Z" fill="#F14568"/>
<path d="M235.697 197.112C235.449 197.693 234.17 197.707 232.839 197.141C231.506 196.576 230.627 195.647 230.874 195.064C231.121 194.483 232.4 194.47 233.733 195.036C235.064 195.601 235.943 196.53 235.697 197.112Z" fill="#F36269"/>
<path d="M252.845 195.091C253.037 195.993 251.519 197.081 249.456 197.522C247.391 197.961 245.562 197.588 245.369 196.686C245.177 195.784 246.694 194.697 248.759 194.256C250.823 193.816 252.653 194.19 252.845 195.091Z" fill="#F36269"/>
<path d="M250.024 199.093C250.024 199.093 249.931 199.21 249.767 199.413C249.604 199.623 249.337 199.902 248.974 200.214C248.257 200.842 247.073 201.549 245.614 201.851C244.156 202.149 242.79 201.967 241.882 201.675C241.426 201.53 241.071 201.379 240.837 201.251C240.607 201.129 240.475 201.058 240.475 201.058C240.475 201.058 240.621 201.092 240.874 201.15C241.127 201.216 241.5 201.28 241.955 201.335C242.867 201.45 244.129 201.446 245.475 201.173C246.82 200.892 247.981 200.398 248.774 199.932C249.17 199.701 249.488 199.494 249.694 199.334C249.904 199.181 250.024 199.093 250.024 199.093Z" fill="#F14568"/>
<path d="M244.252 195.674C242.706 196.779 240.496 196.862 238.872 195.874C239.078 197.174 240.309 198.288 241.624 198.247C242.94 198.206 244.127 196.985 244.252 195.674Z" fill="#F36269"/>
<path d="M241.239 197.884C240.885 197.802 240.469 197.65 240.081 197.399C239.693 197.149 239.364 196.795 239.291 196.373C239.209 195.959 239.431 195.617 239.8 195.372C240.053 195.209 240.333 195.134 240.605 195.108C240.719 195.097 240.823 195.094 240.924 195.101C240.936 194.97 240.939 194.827 240.946 194.664C240.96 193.979 240.922 193.06 240.736 192.043C240.383 190.075 239.608 188.6 239.513 188.43C239.512 188.625 239.559 190.274 239.911 192.19C240.072 193.11 240.28 193.935 240.457 194.581C240.155 194.55 239.82 194.586 239.477 194.742C239.188 194.868 238.909 195.066 238.691 195.378C238.473 195.7 238.389 196.127 238.468 196.51C238.6 197.301 239.224 197.797 239.738 198.028C240.274 198.263 240.795 198.331 241.21 198.299C241.635 198.279 241.959 198.18 242.168 198.093C242.324 198.027 242.425 197.972 242.47 197.949C242.375 197.964 241.893 198.025 241.239 197.884Z" fill="#F14568"/>
<path d="M264.65 186.193C265.445 187.099 265.794 188.391 265.551 189.575C265.445 190.083 265.263 190.58 264.999 191.02C264.652 191.625 264.155 192.132 263.522 192.433C263.357 191.646 263.013 190.59 262.694 190.178C261.548 189.624 260.297 189.875 259.408 190.786C258.512 191.695 258.287 193.185 258.858 194.327C257.862 193.649 257.199 192.511 257.083 191.312C256.861 192.021 256.639 192.723 256.417 193.426C255.289 190.668 255.787 187.3 257.686 184.996C256.964 185.056 256.242 185.109 255.528 185.17C256.518 184.922 257.186 183.635 256.942 182.569C256.651 181.324 255.565 180.427 254.461 179.775C253.365 179.124 252.156 178.596 251.302 177.642C251.236 178.098 251.179 178.547 251.12 179.004C249.999 178.588 249.167 177.488 249.065 176.298C248.113 178.33 246.178 179.875 243.977 180.361C243.99 179.521 243.695 178.574 243.7 177.733C243.603 179.121 242.888 180.444 241.795 181.292C240.694 182.14 239.225 182.496 237.859 182.239C238.323 182.106 238.439 181.552 238.415 181.077C237.334 182.683 235.513 183.767 233.584 183.95C231.657 184.135 229.66 183.414 228.296 182.046C229.707 182.673 231.581 181.629 231.793 180.093C231.847 179.744 231.816 179.391 231.746 179.043C230.179 179.19 228.564 178.867 227.182 178.096C227.48 178.116 227.772 178.067 228.045 177.957C228.707 177.695 229.253 177.099 229.557 176.439C229.988 175.501 230.056 174.456 230.238 173.439C230.411 172.428 230.74 171.371 231.533 170.717C231.78 170.514 232.085 170.374 232.401 170.296C231.525 169.661 231.064 168.486 231.108 166.782C232.404 167.763 234.265 167.553 235.755 166.899C237.244 166.245 238.552 165.207 240.062 164.592C242.305 163.687 244.93 163.838 247.095 164.919C247.534 164.678 247.994 164.476 248.473 164.352C250.084 163.924 251.877 164.193 253.285 165.088C255.936 164.461 258.709 165.094 260.558 167.094C262.407 169.102 263.072 172.123 262.24 174.719C262.946 174.298 263.661 173.87 264.368 173.442C264.738 174.46 264.47 175.672 263.718 176.443C265.122 176.198 266.636 176.73 267.569 177.803C266.837 177.925 266.097 178.046 265.365 178.167C266.844 178.989 267.763 180.719 267.614 182.411C267.464 184.096 266.25 185.642 264.65 186.193Z" fill="#F35E23"/>
<path d="M267.614 182.411C267.526 183.379 267.088 184.309 266.429 185.023C265.932 185.552 265.325 185.961 264.65 186.193C265.445 187.099 265.794 188.391 265.551 189.575C265.445 190.083 265.263 190.58 264.999 191.02C263.561 190.476 262.389 189.109 262.387 187.548C261.595 186.779 261.192 185.638 261.332 184.542C260.617 184.977 260.095 185.712 259.915 186.523C260.077 184.188 260.247 181.847 260.41 179.506C259.775 180.052 259.131 180.598 258.496 181.144C259.414 178.996 258.311 176.208 256.172 175.267C256.132 175.816 256.085 176.357 256.047 176.906C254.184 176.466 252.603 175.005 252.015 173.189C251.579 174.058 251.152 174.919 250.717 175.78C250.198 174.87 249.68 173.953 249.16 173.035C247.908 174.036 246.656 175.038 245.403 176.047C245.063 175.084 244.722 174.12 244.381 173.164C244.078 175.554 242.296 177.687 239.991 178.406C239.94 177.654 239.881 176.894 239.83 176.142C238.809 178.331 236.389 179.803 233.968 179.69C234.372 178.66 234.769 177.621 235.166 176.59C233.165 178.102 230.458 178.605 228.045 177.957C228.707 177.695 229.253 177.099 229.557 176.439C229.827 175.854 229.954 175.232 230.058 174.594C230.12 174.213 230.167 173.825 230.238 173.439C230.411 172.429 230.74 171.371 231.533 170.718C231.78 170.514 232.085 170.374 232.401 170.296C231.525 169.661 231.064 168.486 231.108 166.782C232.404 167.763 234.265 167.553 235.755 166.899C237.244 166.245 238.551 165.207 240.062 164.592C242.305 163.687 244.93 163.839 247.095 164.92C247.534 164.678 247.994 164.476 248.473 164.352C250.084 163.924 251.877 164.193 253.285 165.088C255.936 164.461 258.709 165.094 260.558 167.094C262.407 169.102 263.072 172.123 262.24 174.719C262.946 174.298 263.661 173.87 264.368 173.442C264.738 174.46 264.47 175.672 263.718 176.443C265.122 176.198 266.636 176.73 267.569 177.803C266.837 177.925 266.097 178.046 265.365 178.167C266.844 178.989 267.763 180.719 267.614 182.411Z" fill="#F46F2E"/>
<path d="M267.614 182.411C267.526 183.379 267.088 184.309 266.429 185.023C264.763 184.109 263.7 182.158 263.89 180.253C263.578 180.729 263.267 181.205 262.948 181.681C262.875 180.354 262.811 179.028 262.738 177.702C262.167 178.335 261.588 178.967 261.019 179.601C261 177.351 260.203 175.104 258.796 173.345C258.219 173.749 257.636 174.144 257.06 174.548C257.733 173.322 258.434 171.968 258.165 170.602C257.944 169.513 257.065 168.587 255.991 168.312C254.917 168.036 253.698 168.419 252.981 169.267C252.997 168.213 252.183 167.206 251.143 167.008C250.112 166.802 248.975 167.426 248.589 168.404C247.207 167.457 245.259 167.739 243.843 168.642C242.426 169.545 241.424 170.955 240.454 172.32C240.321 171.343 240.187 170.358 240.054 169.373C239.382 171.807 237.037 173.673 234.515 173.777C235.056 172.959 235.588 172.133 236.129 171.315C234.057 172.327 232.036 173.417 230.058 174.594C230.12 174.214 230.167 173.825 230.238 173.439C230.411 172.429 230.74 171.371 231.533 170.718C231.78 170.514 232.085 170.374 232.401 170.296C231.525 169.661 231.064 168.486 231.108 166.782C232.404 167.763 234.265 167.553 235.755 166.899C237.244 166.245 238.551 165.207 240.062 164.592C242.305 163.687 244.93 163.839 247.095 164.92C247.534 164.679 247.994 164.476 248.473 164.352C250.084 163.924 251.877 164.193 253.285 165.088C255.936 164.461 258.709 165.094 260.558 167.094C262.407 169.102 263.072 172.123 262.24 174.719C262.946 174.298 263.661 173.87 264.368 173.442C264.738 174.46 264.47 175.672 263.718 176.443C265.122 176.198 266.636 176.73 267.569 177.803C266.837 177.925 266.097 178.046 265.365 178.167C266.844 178.989 267.763 180.719 267.614 182.411Z" fill="#F68640"/>
<path d="M256.171 201.714C259.071 201.612 261.25 199.988 262.439 198.601C262.706 198.288 262.923 197.988 263.087 197.72C263.977 196.258 264.439 191.076 262.367 189.778C260.914 188.869 259.776 190.047 259.227 190.835V190.838C258.992 191.173 258.863 191.437 258.863 191.437L256.171 201.714Z" fill="#F9AA7F"/>
<path d="M256.171 201.714C259.071 201.612 261.25 199.988 262.439 198.601C262.543 198.459 262.634 198.323 262.712 198.194C263.602 196.732 264.065 191.551 261.991 190.254C260.815 189.516 259.845 190.149 259.227 190.835V190.838C258.992 191.173 258.863 191.437 258.863 191.437L256.171 201.714Z" fill="#F68672"/>
<path d="M262.859 193.931C262.947 194.351 262.861 194.78 262.707 195.185C262.051 196.901 260.253 198.156 258.534 199.318C259.072 198.494 259.298 197.549 259.236 196.615C259.214 196.289 259.158 195.965 259.169 195.64C259.213 194.333 262.335 191.448 262.859 193.931Z" fill="#F36269"/>
<path d="M257.676 199.777L257.773 199.727C257.834 199.693 257.933 199.649 258.047 199.579C258.277 199.439 258.596 199.213 258.902 198.872C259.206 198.532 259.489 198.071 259.637 197.518C259.774 196.966 259.779 196.316 259.507 195.679C259.479 195.598 259.437 195.521 259.396 195.445L259.365 195.387L259.361 195.381L259.362 195.383L259.36 195.382L259.365 195.372L259.395 195.324L259.455 195.227L259.579 195.038C259.748 194.789 259.928 194.557 260.112 194.342C260.297 194.127 260.488 193.929 260.674 193.75C260.863 193.572 261.044 193.405 261.223 193.283C261.4 193.16 261.593 193.083 261.771 193.068C261.951 193.056 262.117 193.103 262.227 193.164C262.34 193.226 262.4 193.303 262.424 193.358L262.449 193.447L262.448 193.353C262.44 193.292 262.397 193.199 262.286 193.109C262.177 193.023 262.003 192.937 261.767 192.921C261.533 192.909 261.276 192.976 261.044 193.094C260.811 193.213 260.599 193.364 260.375 193.531C260.154 193.699 259.928 193.89 259.71 194.104C259.492 194.318 259.279 194.555 259.086 194.812L258.943 195.01L258.874 195.111L258.783 195.255L258.72 195.356L258.773 195.462L258.851 195.613L258.947 195.816C259.183 196.37 259.216 196.94 259.146 197.447C259.063 197.954 258.872 198.399 258.648 198.749C258.423 199.1 258.172 199.357 257.984 199.525C257.891 199.61 257.808 199.668 257.756 199.711L257.676 199.777Z" fill="#D03B58"/>
<path d="M228.076 358.371C228.076 361.45 220.079 362.614 214.613 362.493C209.361 362.607 201.796 361.539 201.199 358.735C201.163 358.616 201.151 358.496 201.151 358.371C201.151 355.769 204.134 341.09 205.537 334.335C205.972 332.264 206.253 330.933 206.253 330.933H222.967C222.967 330.933 223.247 332.264 223.683 334.335C225.086 341.09 228.076 355.769 228.076 358.371Z" fill="#46689C"/>
<path d="M223.683 334.335C223.247 332.264 222.967 330.933 222.967 330.933H219.995H206.253C206.253 330.933 205.972 332.264 205.537 334.335H220.766C222.444 341.833 224.872 353.382 224.394 355.178C223.719 357.75 212.023 362.249 201.199 358.735C201.796 361.539 209.361 362.607 214.613 362.493C220.079 362.614 228.076 361.45 228.076 358.371C228.076 355.769 225.086 341.09 223.683 334.335Z" fill="#2C507E"/>
<path d="M224.395 332.315H204.827V327.849H224.395V332.315Z" fill="#46689C"/>
<path d="M220.561 348.799H205.674V342.135H220.561V348.799Z" fill="white"/>
<path d="M222.306 317.672C221.904 318.093 221.203 318.19 220.701 317.895C220.256 320.371 219.811 322.85 219.365 325.327C219.26 325.913 219.079 326.595 218.524 326.811C217.795 327.093 217.098 326.355 216.688 325.689C215.721 324.116 215.091 322.461 214.435 320.789H212.195C212.311 321.822 213.112 323.152 213.504 323.84C213.897 324.528 216.085 330.914 216.223 330.941C217.677 331.234 219.197 331.197 220.634 330.83C220.247 326.392 220.82 321.872 222.306 317.672Z" fill="#2AB57E"/>
<path d="M225.493 312.087C226.413 310.796 226.012 308.764 224.671 307.918C223.33 307.072 221.324 307.586 220.555 308.973C220.255 307.606 218.89 306.555 217.491 306.616C216.093 306.676 214.823 307.84 214.642 309.228C213.703 307.68 211.689 306.875 209.943 307.349C208.195 307.823 206.865 309.536 206.837 311.347C205.884 311.109 204.83 311.121 203.969 311.595C203.107 312.067 202.501 313.068 202.682 314.034C202.86 315 203.962 315.746 204.878 315.391C204.028 316.056 203.768 317.368 204.302 318.307C204.836 319.245 206.095 319.695 207.102 319.305C205.795 321.119 206.829 324.101 208.978 324.719C211.176 325.349 213.362 323.422 213.461 321.259L213.497 321.327C213.508 322.362 214.157 323.335 215.027 323.906C215.941 324.506 217.056 324.723 218.148 324.77C221.203 324.898 226.099 322.841 224.932 319.005L224.93 318.922C226.854 318.741 228.987 318.204 229.232 315.863C229.442 313.849 227.509 311.896 225.493 312.087Z" fill="#2EAE7D"/>
<path d="M210.458 349.612C210.386 353.437 210.305 356.899 210.249 359.198C210.209 360.794 209.162 362.058 207.881 362.058H195.453C194.172 362.058 193.125 360.794 193.085 359.198C193.028 356.899 192.948 353.437 192.876 349.612C192.787 344.955 192.722 339.776 192.739 335.541C192.763 330.994 192.876 327.551 193.157 326.989C194.108 325.152 197.346 323.316 197.346 323.316L198.111 307.969H205.215L205.989 323.316C205.989 323.316 209.226 325.152 210.177 326.989C210.458 327.551 210.571 330.994 210.587 335.541C210.612 339.776 210.546 344.955 210.458 349.612Z" fill="#C07E53"/>
<path d="M205.305 309.259H198.028C197.497 309.259 197.066 308.829 197.066 308.297V307.469C197.066 306.938 197.497 306.508 198.028 306.508H205.305C205.837 306.508 206.267 306.938 206.267 307.469V308.297C206.267 308.829 205.837 309.259 205.305 309.259Z" fill="#363950"/>
<path d="M210.458 349.612H192.876C192.787 344.955 192.722 339.776 192.739 335.541H210.587C210.612 339.776 210.546 344.955 210.458 349.612Z" fill="#F68640"/>
<path d="M250.493 321.258V356.773H225.748V321.258H250.493Z" fill="#5B9FDC"/>
<path d="M234.036 321.258H228.626V319.074H234.036V321.258Z" fill="#363950"/>
<path d="M250.493 338.087V343.673L250.318 343.738C248.071 344.561 245.952 345.991 244.784 348.086C243.961 349.552 243.506 351.42 242.011 352.19C240.277 353.083 238.247 351.963 236.442 351.21C233.08 349.792 229.204 349.703 225.748 350.848V332.18C227.628 333.044 229.899 333.172 231.89 332.53C235.152 331.479 237.651 328.748 239.181 325.688C239.886 324.27 240.418 322.787 240.85 321.258H243.979C243.687 324.912 244.352 328.642 245.946 331.94C247.055 334.252 248.614 336.342 250.493 338.087Z" fill="white"/>
<path d="M230.959 337.852L232.03 340.415L233.101 337.852H234.816V342.76H233.402V340.071L232.562 342.284H231.498L230.658 340.071V342.76H229.243V337.852H230.959Z" fill="#363950"/>
<path d="M237.144 337.852V342.76H235.519V337.852H237.144Z" fill="#363950"/>
<path d="M239.469 337.852V341.409H241.514V342.76H237.845V337.852H239.469Z" fill="#363950"/>
<path d="M245.058 342.76L244.036 341.073L243.56 341.605V342.76H241.936V337.852H243.56V339.554L245.023 337.852H246.893L245.143 339.826L246.998 342.76H245.058Z" fill="#363950"/>
<path d="M245.706 360.088C246.042 360.174 246.392 360.257 246.735 360.198C247.077 360.139 247.413 359.903 247.481 359.561C247.569 359.115 247.196 358.722 246.84 358.438C245.714 357.538 244.442 356.821 243.088 356.325C245.101 356.542 247.176 356.163 248.983 355.246C249.568 354.949 250.209 354.305 249.867 353.745C249.658 353.406 249.201 353.34 248.804 353.32C247.259 353.246 245.706 353.343 244.182 353.611C245.446 352.941 246.407 351.725 246.771 350.341C246.869 349.968 246.887 349.493 246.564 349.281C246.266 349.085 245.869 349.246 245.56 349.425C244.337 350.132 243.263 351.096 242.429 352.235C242.808 351.703 243.201 351.135 243.249 350.483C243.295 349.832 242.841 349.097 242.187 349.097C241.676 349.097 241.273 349.515 240.959 349.917C239.99 351.151 237.128 355.369 238.092 356.987C238.548 357.753 240.692 358.346 241.491 358.678C242.86 359.246 244.27 359.717 245.706 360.088Z" fill="#2EAE7D"/>
<path d="M235.783 352.188C234.427 352.103 233.087 352.458 231.798 352.926C231.61 352.993 231.414 353.072 231.227 353.148C231.087 353.197 230.958 353.251 230.822 353.304C227.65 354.564 224.386 356.012 221.303 357.722C221.124 357.82 220.944 357.921 220.766 358.026C218.908 359.075 217.121 360.228 215.459 361.49C213.087 363.293 213.958 364.538 216.58 364.461C217.512 364.434 218.445 364.385 219.381 364.309C219.583 364.301 219.791 364.282 219.995 364.268C222.083 364.095 224.171 363.819 226.237 363.444C226.436 363.404 226.636 363.365 226.836 363.325C227.889 363.123 228.939 362.893 229.975 362.635C230.173 362.587 230.366 362.536 230.562 362.481C231.728 362.181 232.882 361.844 234.025 361.479C234.877 361.204 235.744 360.896 236.542 360.49C236.746 360.389 236.945 360.283 237.128 360.168C237.56 359.914 237.966 359.621 238.335 359.284C239.526 358.177 240.271 356.442 239.769 354.895C239.244 353.269 237.485 352.298 235.783 352.188Z" fill="#F68640"/>
<path d="M218.893 362.197C219.053 362.897 219.215 363.605 219.38 364.309C219.583 364.301 219.791 364.282 219.995 364.268C219.827 363.534 219.66 362.8 219.493 362.065C219.396 361.684 218.805 361.813 218.893 362.197Z" fill="#F46F2E"/>
<path d="M221.303 357.722C221.124 357.82 220.944 357.921 220.766 358.026C221.24 359.46 221.648 360.917 221.989 362.388C222.076 362.772 222.676 362.641 222.589 362.257C222.236 360.726 221.807 359.212 221.303 357.722Z" fill="#F46F2E"/>
<path d="M224.876 359.073C225.456 360.487 225.91 361.952 226.237 363.444C226.436 363.404 226.636 363.365 226.836 363.325C226.501 361.778 226.023 360.261 225.418 358.795C225.268 358.429 224.726 358.707 224.876 359.073Z" fill="#F46F2E"/>
<path d="M228.419 356.566C229.158 358.526 229.678 360.565 229.975 362.635C230.173 362.587 230.366 362.536 230.562 362.481C230.256 360.368 229.723 358.292 228.965 356.283C228.829 355.918 228.283 356.201 228.419 356.566Z" fill="#F46F2E"/>
<path d="M231.798 352.926C231.61 352.993 231.414 353.072 231.227 353.148C232.05 355.09 232.553 357.155 232.7 359.266C232.731 359.65 233.34 359.685 233.312 359.288C233.157 357.098 232.643 354.947 231.798 352.926Z" fill="#F46F2E"/>
<path d="M235.634 354.998C235.475 355.085 235.445 355.256 235.498 355.412C236.085 357.043 236.442 358.758 236.542 360.49C236.746 360.389 236.945 360.283 237.128 360.168C236.995 358.451 236.63 356.76 236.048 355.133C235.988 354.977 235.765 354.93 235.634 354.998Z" fill="#F46F2E"/>
<path d="M221.162 330.328C221.108 329.984 221.044 329.631 220.853 329.341C220.662 329.051 220.312 328.836 219.972 328.91C219.528 329.006 219.316 329.506 219.197 329.945C218.821 331.337 218.669 332.79 218.755 334.229C218.151 332.296 216.976 330.544 215.416 329.253C214.911 328.835 214.063 328.503 213.688 329.041C213.459 329.366 213.581 329.813 213.721 330.183C214.267 331.632 214.977 333.017 215.83 334.308C214.711 333.417 213.213 333.018 211.8 333.237C211.418 333.296 210.975 333.469 210.91 333.849C210.849 334.2 211.155 334.5 211.441 334.713C212.578 335.552 213.89 336.152 215.267 336.464C214.628 336.328 213.95 336.194 213.333 336.41C212.717 336.627 212.225 337.338 212.485 337.937C212.688 338.405 213.233 338.608 213.727 338.736C215.246 339.132 220.255 340.075 221.353 338.547C221.874 337.824 221.563 335.62 221.549 334.755C221.523 333.273 221.395 331.793 221.162 330.328Z" fill="#2EAE7D"/>
<path d="M217.873 342.577C218.335 343.855 219.196 344.942 220.139 345.937C220.276 346.084 220.426 346.231 220.571 346.373C220.671 346.483 220.773 346.58 220.874 346.682C223.294 349.089 225.925 351.504 228.721 353.65C228.881 353.775 229.047 353.902 229.214 354.021C230.917 355.307 232.686 356.488 234.507 357.508C237.105 358.965 237.9 357.67 236.784 355.296C236.388 354.451 235.971 353.615 235.529 352.787C235.44 352.607 235.34 352.423 235.245 352.24C234.254 350.395 233.17 348.59 232.001 346.845C231.886 346.678 231.77 346.511 231.655 346.343C231.047 345.457 230.42 344.588 229.769 343.738C229.647 343.576 229.523 343.419 229.394 343.263C228.655 342.312 227.885 341.388 227.096 340.486C226.504 339.814 225.875 339.142 225.185 338.57C225.01 338.425 224.834 338.285 224.656 338.163C224.25 337.868 223.82 337.612 223.363 337.408C221.874 336.757 219.986 336.766 218.767 337.843C217.485 338.972 217.297 340.973 217.873 342.577Z" fill="#F68640"/>
<path d="M233.785 354.078C234.364 353.651 234.949 353.22 235.529 352.787C235.44 352.607 235.34 352.423 235.245 352.24C234.639 352.686 234.033 353.133 233.426 353.579C233.114 353.82 233.469 354.311 233.785 354.078Z" fill="#F46F2E"/>
<path d="M228.721 353.65C228.881 353.775 229.047 353.902 229.214 354.021C230.339 353.015 231.513 352.06 232.726 351.162C233.044 350.928 232.684 350.43 232.367 350.664C231.104 351.597 229.887 352.595 228.721 353.65Z" fill="#F46F2E"/>
<path d="M228.535 349.836C229.602 348.739 230.763 347.74 232.001 346.845C231.886 346.678 231.771 346.511 231.655 346.343C230.368 347.267 229.169 348.31 228.065 349.45C227.789 349.733 228.259 350.119 228.535 349.836Z" fill="#F46F2E"/>
<path d="M224.824 347.584C226.327 346.126 227.989 344.836 229.769 343.738C229.647 343.576 229.523 343.419 229.394 343.263C227.579 344.385 225.887 345.702 224.347 347.198C224.068 347.468 224.544 347.855 224.824 347.584Z" fill="#F46F2E"/>
<path d="M220.139 345.937C220.276 346.084 220.426 346.231 220.57 346.373C222.023 344.844 223.716 343.559 225.594 342.582C225.933 342.403 225.723 341.829 225.369 342.013C223.423 343.028 221.655 344.357 220.139 345.937Z" fill="#F46F2E"/>
<path d="M220.51 341.595C220.653 341.705 220.821 341.664 220.944 341.553C222.206 340.365 223.637 339.354 225.185 338.57C225.01 338.425 224.834 338.285 224.656 338.163C223.134 338.968 221.729 339.978 220.468 341.16C220.35 341.278 220.394 341.502 220.51 341.595Z" fill="#F46F2E"/>
<path d="M249.5 344.85C249.5 345.39 249.134 345.826 248.682 345.826H247.492C247.04 345.826 246.673 345.39 246.673 344.85V333.818C246.673 333.279 247.04 332.842 247.492 332.842H248.682C249.134 332.842 249.5 333.279 249.5 333.818V344.85ZM249.5 361.081C249.5 361.621 249.134 362.058 248.682 362.058H247.492C247.04 362.058 246.673 361.621 246.673 361.081V350.049C246.673 349.51 247.04 349.073 247.492 349.073H248.682C249.134 349.073 249.5 349.51 249.5 350.049V361.081ZM244.144 344.85C244.144 345.39 243.778 345.826 243.325 345.826H242.135C241.683 345.826 241.317 345.39 241.317 344.85V333.818C241.317 333.279 241.683 332.842 242.135 332.842H243.325C243.778 332.842 244.144 333.279 244.144 333.818V344.85ZM244.144 361.081C244.144 361.621 243.778 362.058 243.325 362.058H242.135C241.683 362.058 241.317 361.621 241.317 361.081V350.049C241.317 349.51 241.683 349.073 242.135 349.073H243.325C243.778 349.073 244.144 349.51 244.144 350.049V361.081ZM238.787 344.85C238.787 345.39 238.421 345.826 237.969 345.826H236.779C236.328 345.826 235.961 345.39 235.961 344.85V333.818C235.961 333.279 236.328 332.842 236.779 332.842H237.969C238.421 332.842 238.787 333.279 238.787 333.818V344.85ZM238.787 361.081C238.787 361.621 238.421 362.058 237.969 362.058H236.779C236.328 362.058 235.961 361.621 235.961 361.081V350.049C235.961 349.51 236.328 349.073 236.779 349.073H237.969C238.421 349.073 238.787 349.51 238.787 350.049V361.081ZM233.431 344.85C233.431 345.39 233.065 345.826 232.614 345.826H231.423C230.97 345.826 230.604 345.39 230.604 344.85V333.818C230.604 333.279 230.97 332.842 231.423 332.842H232.614C233.065 332.842 233.431 333.279 233.431 333.818V344.85ZM233.431 361.081C233.431 361.621 233.065 362.058 232.614 362.058H231.423C230.97 362.058 230.604 361.621 230.604 361.081V350.049C230.604 349.51 230.97 349.073 231.423 349.073H232.614C233.065 349.073 233.431 349.51 233.431 350.049V361.081ZM228.076 344.85C228.076 345.39 227.709 345.826 227.256 345.826H226.066C225.615 345.826 225.248 345.39 225.248 344.85V333.818C225.248 333.279 225.615 332.842 226.066 332.842H227.256C227.709 332.842 228.076 333.279 228.076 333.818V344.85ZM228.076 361.081C228.076 361.621 227.709 362.058 227.256 362.058H226.066C225.615 362.058 225.248 361.621 225.248 361.081V350.049C225.248 349.51 225.615 349.073 226.066 349.073H227.256C227.709 349.073 228.076 349.51 228.076 350.049V361.081ZM222.718 344.85C222.718 345.39 222.352 345.826 221.901 345.826H220.71C220.257 345.826 219.892 345.39 219.892 344.85V333.818C219.892 333.279 220.257 332.842 220.71 332.842H221.901C222.352 332.842 222.718 333.279 222.718 333.818V344.85ZM222.718 361.081C222.718 361.621 222.352 362.058 221.901 362.058H220.71C220.257 362.058 219.892 361.621 219.892 361.081V350.049C219.892 349.51 220.257 349.073 220.71 349.073H221.901C222.352 349.073 222.718 349.51 222.718 350.049V361.081ZM217.363 344.85C217.363 345.39 216.996 345.826 216.544 345.826H215.353C214.901 345.826 214.536 345.39 214.536 344.85V333.818C214.536 333.279 214.901 332.842 215.353 332.842H216.544C216.996 332.842 217.363 333.279 217.363 333.818V344.85ZM217.363 361.081C217.363 361.621 216.996 362.058 216.544 362.058H215.353C214.901 362.058 214.536 361.621 214.536 361.081V350.049C214.536 349.51 214.901 349.073 215.353 349.073H216.544C216.996 349.073 217.363 349.51 217.363 350.049V361.081ZM212.005 344.85C212.005 345.39 211.639 345.826 211.188 345.826H209.998C209.546 345.826 209.179 345.39 209.179 344.85V333.818C209.179 333.279 209.546 332.842 209.998 332.842H211.188C211.639 332.842 212.005 333.279 212.005 333.818V344.85ZM212.005 361.081C212.005 361.621 211.639 362.058 211.188 362.058H209.998C209.546 362.058 209.179 361.621 209.179 361.081V350.049C209.179 349.51 209.546 349.073 209.998 349.073H211.188C211.639 349.073 212.005 349.51 212.005 350.049V361.081ZM206.65 344.85C206.65 345.39 206.283 345.826 205.831 345.826H204.641C204.188 345.826 203.823 345.39 203.823 344.85V333.818C203.823 333.279 204.188 332.842 204.641 332.842H205.831C206.283 332.842 206.65 333.279 206.65 333.818V344.85ZM206.65 361.081C206.65 361.621 206.283 362.058 205.831 362.058H204.641C204.188 362.058 203.823 361.621 203.823 361.081V350.049C203.823 349.51 204.188 349.073 204.641 349.073H205.831C206.283 349.073 206.65 349.51 206.65 350.049V361.081ZM201.293 344.85C201.293 345.39 200.927 345.826 200.475 345.826H199.285C198.833 345.826 198.466 345.39 198.466 344.85V333.818C198.466 333.279 198.833 332.842 199.285 332.842H200.475C200.927 332.842 201.293 333.279 201.293 333.818V344.85ZM201.293 361.081C201.293 361.621 200.927 362.058 200.475 362.058H199.285C198.833 362.058 198.466 361.621 198.466 361.081V350.049C198.466 349.51 198.833 349.073 199.285 349.073H200.475C200.927 349.073 201.293 349.51 201.293 350.049V361.081ZM195.936 344.85C195.936 345.39 195.571 345.826 195.119 345.826H193.928C193.476 345.826 193.11 345.39 193.11 344.85V333.818C193.11 333.279 193.476 332.842 193.928 332.842H195.119C195.571 332.842 195.936 333.279 195.936 333.818V344.85ZM195.936 361.081C195.936 361.621 195.571 362.058 195.119 362.058H193.928C193.476 362.058 193.11 361.621 193.11 361.081V350.049C193.11 349.51 193.476 349.073 193.928 349.073H195.119C195.571 349.073 195.936 349.51 195.936 350.049V361.081ZM221.205 329.378H189.501C189.501 329.378 190.738 363.612 191.176 364.278C191.613 364.944 213.688 366.065 221.205 366.054C228.754 366.043 250.923 364.855 251.36 364.189C251.797 363.523 252.909 329.378 252.909 329.378H221.205Z" fill="#DCDDDA"/>
<path d="M255.798 330.981H186.612V324.716H255.798V330.981Z" fill="#BCBEBC"/>
<path d="M228.27 327.78C227.191 327.78 226.446 326.255 226.822 324.821C227.364 322.759 228.001 320.08 228.159 318.353C228.445 315.213 225.921 308.283 225.921 308.283H229.235C229.235 308.283 231.397 315.775 231.329 318.032C231.28 319.658 230.284 324 229.732 326.301C229.518 327.188 228.931 327.78 228.27 327.78Z" fill="#DCDDDA"/>
<path d="M237.581 316.821C236.245 317.513 232.54 307.81 232.54 307.81L229.655 307.823L230.824 312.022L229.403 318.213C229.403 318.213 228.193 318.464 226.694 318.684C226.508 318.713 226.317 318.738 226.123 318.765C225.226 318.886 224.269 318.982 223.434 319C223.354 319.006 223.271 319.005 223.193 319.009C222.775 319.008 221.445 318.793 221.273 318.654L221.308 313.703C221.308 313.703 216.041 309.362 215.664 308.395C215.516 308.011 217.412 299.57 217.65 298.637L222.003 297.559C222.003 297.559 230.029 302.169 230.47 302.452C232.067 303.48 233.71 304.7 234.763 305.916C235.212 306.43 235.551 306.944 235.734 307.442C237.004 310.874 238.914 316.131 237.581 316.821Z" fill="#F68672"/>
<path d="M223.435 319C223.355 319.006 223.272 319.005 223.194 319.009C223.221 318.804 223.262 318.537 223.308 318.214C223.409 317.484 223.531 316.494 223.641 315.421C223.742 314.347 223.77 313.373 223.707 312.638C223.69 312.453 223.673 312.285 223.66 312.137C223.632 311.99 223.611 311.862 223.59 311.758C223.556 311.545 223.536 311.421 223.536 311.421C223.536 311.421 223.609 311.521 223.736 311.712C223.799 311.806 223.876 311.925 223.961 312.063C224.031 312.208 224.109 312.372 224.192 312.561C224.514 313.306 224.752 314.431 224.64 315.61C224.519 316.785 224.134 317.756 223.788 318.408C223.659 318.649 223.538 318.845 223.435 319Z" fill="#D03B58"/>
<path d="M226.695 318.684C226.508 318.713 226.318 318.738 226.123 318.765L226.139 318.637C226.24 317.906 226.361 316.916 226.47 315.845C226.574 314.768 226.601 313.795 226.539 313.06C226.521 312.875 226.507 312.71 226.491 312.563C226.465 312.414 226.44 312.286 226.423 312.182C226.388 311.967 226.367 311.848 226.367 311.848C226.367 311.848 226.438 311.945 226.567 312.134C226.628 312.229 226.707 312.347 226.789 312.487C226.862 312.629 226.94 312.797 227.023 312.982C227.345 313.731 227.583 314.857 227.469 316.033C227.36 317.124 227.02 318.04 226.695 318.684Z" fill="#D03B58"/>
<path d="M222.306 219.627C222.306 219.627 213.634 223.064 212.195 224.668C210.756 226.272 198.466 269.563 198.466 272.498C198.466 275.433 198.466 280.385 198.466 280.385C198.466 280.385 198.466 295.27 199.383 296.633C200.301 297.996 210.386 304.965 210.386 304.965C210.386 304.965 210.664 308.6 211.581 309.259C212.499 309.919 215.665 308.395 215.665 308.395C215.665 308.395 221.345 298.749 222.7 297.959C222.7 297.959 223.99 295.06 223.931 294.326C223.872 293.592 220.112 291.3 220.112 291.3L217.563 275.8C217.563 275.8 225.127 249.752 225.921 245.533C226.715 241.314 222.306 219.627 222.306 219.627Z" fill="#F1435B"/>
<path d="M218.277 227.74C218.277 227.74 224.584 232.692 226.017 236.178C227.449 239.663 226.661 249.653 226.661 249.653C226.661 249.653 229.764 238.929 229.248 235.811C228.733 232.692 218.277 227.74 218.277 227.74Z" fill="#EF2D2E"/>
<path d="M223.931 256.711L217.563 275.8C217.563 275.8 222.198 284.1 222.473 284.994C222.748 285.888 220.747 289.81 220.747 289.81C220.747 289.81 222.473 290.978 223.023 291.598C223.573 292.217 221.991 296.207 221.991 296.207L215.665 308.395C215.665 308.395 223.807 298.017 223.931 297.559C224.055 297.102 225.499 292.148 225.499 291.323C225.499 290.498 223.194 288.915 223.194 288.915C223.194 288.915 225.156 285.407 225.018 284.651C224.88 283.893 219.653 275.088 219.653 275.088L223.931 256.711Z" fill="#EF2D2E"/>
<path d="M272.024 293.409C272.024 293.409 232.292 295.977 230.604 296.528C228.916 297.078 270.555 303.498 270.555 303.498L246.998 297.559L272.024 293.409Z" fill="#EF2D2E"/>
<path d="M283.561 283.898C283.459 283.982 283.362 284.06 283.255 284.14C282.336 284.831 281.34 285.448 280.291 285.961C278.212 286.984 275.938 287.606 273.667 287.622C273.072 287.629 272.481 287.598 271.894 287.508C271.413 287.453 270.941 287.354 270.464 287.227C267.921 286.545 265.786 285.013 264.138 282.996C263.762 282.54 263.412 282.056 263.09 281.544C261.927 279.724 261.106 277.634 260.689 275.481C260.492 274.459 260.377 273.43 260.365 272.403C260.361 272.229 260.363 272.059 260.371 271.896C260.417 265.654 263.199 259.736 266.37 254.361C270.964 246.585 277.188 235.979 285.8 232.02C287.973 231.023 290.384 230.895 292.715 231.407C293.626 231.606 294.528 231.903 295.393 232.282C295.834 232.47 296.264 232.679 296.679 232.916C297.17 233.184 297.652 233.473 298.111 233.797C298.522 234.083 298.916 234.386 299.295 234.705C299.684 235.035 300.063 235.387 300.414 235.756C300.922 236.275 301.388 236.828 301.804 237.408C302.142 237.881 302.447 238.366 302.703 238.868C303.034 239.472 303.298 240.089 303.508 240.728C305.421 246.655 303.048 253.051 300.351 258.655C297.859 263.858 295.058 268.903 291.98 273.78C289.626 277.511 287.041 281.202 283.561 283.898Z" fill="#20795A"/>
<path d="M260.689 275.481C260.492 274.459 260.377 273.43 260.365 272.403C260.361 272.229 260.363 272.059 260.371 271.896C260.474 271.631 260.578 271.367 260.692 271.103C264.171 262.794 269.097 254.973 274.128 247.521C278.757 240.667 284.657 233.972 292.715 231.407C293.626 231.606 294.528 231.903 295.393 232.282L295.262 232.318C290.469 233.361 286.246 235.996 282.732 239.364C279.276 242.681 276.511 246.618 273.927 250.632C271.54 254.331 269.202 258.067 267.023 261.891C264.552 266.236 262.312 270.762 260.689 275.481Z" fill="#51C292"/>
<path d="M264.138 282.996C263.761 282.54 263.412 282.056 263.09 281.544C264.073 279.29 265.046 277.036 266.029 274.781C267.917 270.444 269.543 265.812 272.06 261.789C274.494 257.908 277.793 254.665 280.242 250.791C282.656 246.966 284.841 243.02 288.047 239.784C290.644 237.163 293.628 234.985 296.679 232.916C297.17 233.184 297.651 233.473 298.111 233.797C294.339 236.351 290.62 239.03 287.641 242.507C284.723 245.911 282.753 249.978 280.206 253.642C277.616 257.372 274.327 260.549 272.236 264.618C270.135 268.709 268.46 273.059 266.624 277.275C265.796 279.187 264.969 281.089 264.138 282.996Z" fill="#51C292"/>
<path d="M273.667 287.622C273.072 287.629 272.482 287.598 271.895 287.508C273.775 284.787 275.455 281.928 276.991 278.995C280.987 271.363 283.991 263.294 287.37 255.392C290.509 248.052 294.109 240.822 299.296 234.705C299.685 235.035 300.064 235.387 300.415 235.756C297.588 239.099 295.228 242.802 293.181 246.668C289.163 254.234 286.269 262.334 282.862 270.177C280.24 276.217 277.328 282.16 273.667 287.622Z" fill="#51C292"/>
<path d="M283.561 283.898C283.459 283.982 283.362 284.06 283.255 284.14C282.336 284.831 281.34 285.448 280.291 285.961C281.118 284.808 281.911 283.634 282.677 282.433C287.384 275.085 290.931 267.141 293.481 258.81C295.72 251.495 297.603 243.881 301.804 237.408C302.142 237.881 302.447 238.366 302.703 238.868C300.662 242.183 299.179 245.807 297.948 249.502C296.594 253.55 295.504 257.679 294.171 261.737C292.841 265.806 291.25 269.788 289.378 273.639C287.658 277.177 285.712 280.603 283.561 283.898Z" fill="#51C292"/>
<path d="M286.046 265.789C285.463 266.847 288.553 272.095 287.617 270.492C286.681 268.888 280.834 264.66 279.848 265.597C278.86 266.533 283.983 275.566 283.983 275.566C283.983 275.566 278.413 269.482 276.874 271.663C276.372 272.376 276.73 273.821 277.431 275.438C275.579 274.759 273.958 274.548 273.929 275.887C273.86 279.039 281.793 282.837 281.793 282.837C291.423 286.265 292.766 270.103 292.766 270.103C292.766 270.103 286.629 264.731 286.046 265.789Z" fill="#F68672"/>
<path d="M217.859 194.871L206.163 184.124L202.378 192.114L217.859 194.871Z" fill="white"/>
<path d="M222.877 193.675L224.053 183.765L218.602 184.468L222.877 193.675Z" fill="white"/>
<path d="M217.35 201.816L206.757 201.833L207.23 206.853L217.35 201.816Z" fill="white"/>
<path d="M176.906 446.68C176.906 446.68 148.885 454 114.32 454C79.755 454 51.7344 446.68 51.7344 446.68C51.7344 446.68 79.755 439.36 114.32 439.36C148.885 439.36 176.906 446.68 176.906 446.68Z" fill="#CBB59B"/>
<path d="M136.076 218.149C136.076 218.149 140.759 219.077 141.421 219.737C143.198 221.511 149.486 259.425 149.486 259.425L138.077 260.184L132.939 221.856L136.076 218.149Z" fill="#F574A9"/>
<path d="M153.919 439.897L121.078 440.818C121.039 437.502 121.143 434.715 121.215 433.215C121.527 433.232 121.865 433.241 122.201 433.241C122.859 433.257 123.549 433.275 124.231 433.284C126.365 433.309 128.362 433.284 128.811 433.13C129.862 432.78 132.06 425.561 132.06 425.561V425.552L132.549 425.527L135.493 425.365C136.112 426.771 137.708 430.078 139.504 431.596C141.831 433.547 150.39 436.974 152.724 438.074C153.527 438.458 153.824 439.232 153.919 439.897Z" fill="#DCDDDA"/>
<path d="M154.032 443.741L121.207 444.662C121.143 443.332 121.102 442.037 121.078 440.818L153.919 439.897L154.032 443.741Z" fill="white"/>
<path d="M101.329 444.542C101.329 446.076 90.1709 449.163 88.0371 448.966C85.9112 448.779 78.1143 442.813 78.1143 442.813C78.1143 442.813 78.419 441.594 78.9083 439.701C79.4458 437.605 80.2079 434.698 81.0422 431.716C82.1489 431.417 83.4245 431.025 83.7373 430.751C84.3069 430.24 86.0234 425.987 86.8821 425.987C87.7404 425.987 95.1683 425.987 95.6499 426.703C96.1234 427.411 96.3152 430.956 97.0778 431.357C97.4067 431.536 98.3932 431.818 99.3881 432.064C99.9654 435.081 100.495 438.031 100.751 439.795C101.088 442.096 101.329 444.006 101.329 444.542Z" fill="#DCDDDA"/>
<path d="M78.1113 442.815C78.1113 442.815 85.912 448.776 88.0389 448.969C90.1665 449.159 101.333 446.083 101.333 444.544C101.333 444.004 101.092 442.096 100.751 439.795C97.1173 441.34 89.3347 444.4 86.7676 443.399C85.0262 442.72 81.7118 441.106 78.9035 439.699C78.4156 441.593 78.1113 442.815 78.1113 442.815Z" fill="white"/>
<path d="M147.822 432.063L118.097 434.559L114.044 434.903C113.387 422.165 115.852 381.659 116.446 376.588C116.47 376.433 116.486 376.307 116.501 376.221C117.331 371.307 119.669 358.178 119.669 358.178L116.978 319.573L116.97 319.683C116.735 322.038 113.074 359.641 112.644 362.153C112.323 363.977 109.584 415.335 106.799 432.063L76.5975 432.908L70.291 433.088C71.1908 421.766 82.747 384.898 85.0162 377.364C85.188 376.823 85.2978 376.433 85.3603 376.221C86.7844 371.002 93.1849 353.476 93.1849 353.476C93.1849 353.476 88.7795 315.505 89.7185 311.272C90.6572 307.046 93.1849 295.233 93.1849 295.233C93.1849 295.233 101.651 297.893 105.508 298.339C109.373 298.8 132.392 297.736 132.392 297.736L140.772 295.233C140.772 295.233 141.022 297.657 141.39 300.89C141.844 304.77 142.485 309.808 143.112 313.173C144.254 319.347 140.075 363.609 140.075 363.609L147.822 432.063Z" fill="#46689C"/>
<path d="M141.39 300.89C138.816 301.656 134.466 302.9 133.676 302.9C132.532 302.9 107.66 304.723 106.368 304.113C105.086 303.51 96.0719 302.751 96.0719 302.751C96.0719 302.751 92.731 317.633 93.1849 320.215C93.6462 322.796 96.7918 352.873 96.7918 352.873C96.7918 352.873 91.0724 372.622 90.3525 378.701C89.9768 381.893 79.3045 417.213 76.5975 432.908L70.291 433.088C71.1908 421.766 82.747 384.898 85.0162 377.364C85.188 376.823 85.2978 376.433 85.3603 376.22C86.7844 371.002 93.1849 353.476 93.1849 353.476C93.1849 353.476 88.7795 315.505 89.7185 311.272C90.6572 307.046 93.1849 295.233 93.1849 295.233C93.1849 295.233 101.651 297.893 105.508 298.339C109.373 298.8 132.392 297.736 132.392 297.736L140.772 295.233C140.772 295.233 141.022 297.657 141.39 300.89Z" fill="#2C507E"/>
<path d="M123.19 356.622C123.19 356.622 118.308 373.819 118.371 375.854C118.402 376.925 117.44 416.633 118.097 434.559L114.044 434.903C113.387 422.165 115.851 381.659 116.446 376.588C116.47 376.433 116.485 376.307 116.501 376.221C117.33 371.307 119.669 358.178 119.669 358.178L116.978 319.573L125.1 316.318L119.568 323.807L123.19 356.622Z" fill="#2C507E"/>
<path d="M104.317 217.263L91.7324 220.959L95.0789 262.798L88.7578 314.102C88.7578 314.102 129.382 321.539 143.605 312.336L136.633 265.035C136.633 265.035 143.048 255.164 143.605 249.029C144.163 242.893 136.076 218.149 136.076 218.149L128.981 217.605L104.317 217.263Z" fill="#F574A9"/>
<path d="M130.35 184.326C130.014 189.967 127.017 195.217 123.081 199.388C119.138 203.55 115.481 207.72 110.669 210.913C109.104 209.731 97.6453 201.845 95.7124 197.118C95.2975 196.14 94.9534 195.131 94.6874 194.099C91.7536 182.87 96.6591 173.489 107.433 169.898C111.572 168.513 118.927 168.043 122.8 170.031C126.516 171.94 128.982 175.602 129.935 179.608C130.303 181.157 130.444 182.753 130.35 184.326Z" fill="#300C21"/>
<path d="M128.981 217.605L120.887 214.582L119.798 213.924L119.199 213.945L111.047 214.248L110.387 214.272L109.416 214.773L104.317 217.263C106.98 221.419 112.997 229.959 117.599 229.786C122.064 229.618 126.454 222.16 128.981 217.605Z" fill="#C7614F"/>
<path d="M108.553 215.218C108.553 215.218 117.186 216.963 118.47 216.411C119.756 215.866 121.519 214.966 121.519 214.966C121.23 214.644 119.236 211.626 119.281 210.601C119.385 208.238 120.082 204.918 120.082 204.918L112.058 202.595C112.058 202.595 111.844 204.868 111.508 207.279C111.169 209.723 109.035 214.822 108.553 215.218Z" fill="#C7614F"/>
<path d="M111.509 207.276C113.758 208.787 116.518 210.57 117.403 210.823C118.126 211.028 118.781 210.851 119.278 210.601C119.386 208.237 120.084 204.919 120.084 204.919L112.06 202.596C112.06 202.596 111.843 204.873 111.509 207.276Z" fill="#974237"/>
<path d="M106.608 180.695C110.688 175.526 117.867 173.677 123.726 176.682C125.074 177.373 126.162 178.179 126.68 179.1C128.751 182.786 132.126 196.562 129.577 203.39C127.028 210.22 122.444 209.529 120.804 209.14C119.164 208.75 111.412 205.963 109.533 203.573C107.653 201.184 103.251 188.589 103.924 185.216C104.148 184.09 105.246 182.419 106.608 180.695Z" fill="#E27062"/>
<path d="M106.04 179.718C110.12 174.549 117.299 172.701 123.159 175.705C124.507 176.396 125.595 177.202 126.112 178.123C128.183 181.809 131.558 195.585 129.009 202.414C126.46 209.243 121.876 208.553 120.236 208.163C118.597 207.773 110.844 204.986 108.965 202.596C107.086 200.207 102.683 187.613 103.356 184.239C103.581 183.113 104.678 181.443 106.04 179.718Z" fill="#C7614F"/>
<path d="M121.461 196.432C121.111 196.394 120.746 196.298 120.415 196.416C120.945 197.109 121.757 197.58 122.623 197.695L122.823 197.693L123.025 197.556C123.398 197.192 123.699 196.753 123.904 196.275C123.946 196.177 123.983 196.075 123.982 195.969C123.979 195.621 123.769 195.748 123.592 195.875C123.387 196.02 123.162 196.14 122.927 196.232C122.463 196.412 121.956 196.486 121.461 196.432Z" fill="#E27062"/>
<path d="M122.646 197.489C122.803 197.259 122.992 197.05 123.155 196.824C123.356 196.544 123.536 196.249 123.679 195.935C122.422 195.46 122.156 194.336 121.894 193.052C121.776 192.472 121.796 191.867 121.952 191.297C122.032 190.997 122.15 190.707 122.302 190.436C122.379 190.298 122.464 190.166 122.557 190.038C122.648 189.914 122.754 189.83 122.878 189.74C122.831 189.832 122.808 189.931 122.767 190.024C122.661 190.265 122.544 190.495 122.464 190.747C122.384 191.001 122.326 191.261 122.289 191.524C122.216 192.049 122.231 192.589 122.34 193.108C122.446 193.618 122.647 194.11 122.948 194.536C123.293 195.023 123.799 195.464 124.366 195.657C124.372 195.659 123.844 196.694 123.788 196.781C123.646 197.006 123.483 197.219 123.298 197.412C123.117 197.6 122.911 197.823 122.646 197.878C122.563 197.895 122.474 197.897 122.395 197.866L122.495 197.733L122.533 197.67L122.646 197.489Z" fill="#974237"/>
<path d="M115.932 199.875C118.692 201.224 122.045 201.298 124.862 200.071C123.51 201.124 121.983 201.828 120.27 201.809C118.557 201.79 117.26 200.957 115.932 199.875Z" fill="#974237"/>
<path d="M118.728 202.707C119.884 203.334 121.349 203.353 122.52 202.756C122.093 203.358 121.473 203.755 120.736 203.79C120 203.825 119.21 203.265 118.728 202.707Z" fill="#974237"/>
<path d="M108.45 196.694C108.035 196.521 105.85 193.952 104.502 195.658C103.155 197.364 102.915 200.077 104.35 201.514C105.66 202.826 107.461 204.221 109.533 203.573L108.45 196.694Z" fill="#C7614F"/>
<path d="M104.658 197.711C104.594 198.075 104.673 198.445 104.806 198.792C105.373 200.266 106.857 201.324 108.276 202.303C107.822 201.6 107.621 200.786 107.653 199.978C107.665 199.697 107.703 199.417 107.688 199.136C107.627 198.008 105.034 195.56 104.658 197.711Z" fill="#E27062"/>
<path d="M108.982 202.688L108.903 202.647C108.852 202.618 108.77 202.582 108.676 202.523C108.487 202.405 108.224 202.215 107.969 201.924C107.715 201.634 107.476 201.241 107.345 200.765C107.223 200.29 107.206 199.729 107.415 199.174L107.5 198.97L107.524 198.92L107.527 198.915V198.916H107.529L107.524 198.907L107.499 198.866L107.448 198.783L107.343 198.621C107.202 198.409 107.051 198.211 106.896 198.028C106.742 197.846 106.584 197.677 106.428 197.525C106.272 197.373 106.122 197.232 105.974 197.129C105.827 197.025 105.669 196.962 105.524 196.951C105.379 196.943 105.245 196.987 105.156 197.04C105.066 197.096 105.019 197.162 105 197.211L104.981 197.287L104.98 197.208C104.986 197.154 105.019 197.073 105.106 196.994C105.194 196.917 105.334 196.841 105.524 196.824C105.715 196.81 105.925 196.865 106.115 196.963C106.307 197.063 106.482 197.19 106.667 197.331C106.851 197.473 107.038 197.635 107.219 197.817C107.4 197.999 107.577 198.2 107.74 198.42L107.859 198.588L107.917 198.675L107.994 198.798L108.047 198.884L108.007 198.976L107.946 199.109L107.873 199.285C107.691 199.767 107.675 200.259 107.743 200.697C107.819 201.133 107.983 201.515 108.172 201.814C108.362 202.114 108.571 202.332 108.727 202.475L108.915 202.633L108.982 202.688Z" fill="#974237"/>
<path d="M128.245 185.944C128.245 185.944 126.163 184.507 124.919 184.692C123.674 184.878 123.358 186.045 123.862 186.247C124.368 186.448 128.245 185.944 128.245 185.944Z" fill="#470A27"/>
<path d="M110.669 188.826C110.669 188.826 113.419 186.137 115.341 185.666C117.262 185.195 118.048 186.29 117.343 186.783C116.638 187.275 110.669 188.826 110.669 188.826Z" fill="#470A27"/>
<path d="M116.226 197.421C116.179 198.021 114.858 198.405 113.276 198.28C111.694 198.155 110.45 197.569 110.497 196.97C110.544 196.37 111.865 195.986 113.447 196.111C115.03 196.236 116.274 196.823 116.226 197.421Z" fill="#E27062"/>
<path d="M131.377 193.566C131.593 193.966 130.789 194.817 129.581 195.467C128.373 196.115 127.219 196.317 127.004 195.916C126.788 195.516 127.593 194.664 128.801 194.015C130.008 193.365 131.163 193.164 131.377 193.566Z" fill="#E27062"/>
<path d="M103.38 199.042C101.029 195.921 98.8119 191.91 98.1563 188.057C97.5018 184.205 98.1633 180.039 100.466 176.881C102.552 174.02 105.807 172.187 109.195 171.156C114.026 169.687 119.535 169.785 123.837 172.43C128.139 175.073 130.798 180.598 129.23 185.398C127.894 183.509 125.991 182.027 123.833 181.193C123.678 182.104 123.321 182.981 122.795 183.742C122.354 182.359 121.605 181.074 120.619 180.008C120.376 181.529 119.439 182.925 118.123 183.724C117.936 182.257 117.359 180.844 116.468 179.665C115.677 181.781 114.081 183.585 112.076 184.628C112.078 183.255 112.08 181.882 112.082 180.508C111.524 183.601 109.488 186.394 106.714 187.873C106.714 187.873 107.258 194.914 106.963 196.122C106.963 196.122 105.757 195.221 104.635 196.088C103.515 196.954 103.38 199.042 103.38 199.042Z" fill="#300C21"/>
<path d="M115.38 190.811C114.1 190.972 112.966 191.776 112.17 192.792C114.019 192.13 116.11 191.958 118.038 192.335L118.65 192.39C118.066 191.24 116.66 190.65 115.38 190.811Z" fill="#121414"/>
<path d="M126.178 189.616C127.061 189.436 127.991 189.715 128.745 190.209C127.374 190.185 125.952 190.538 124.759 191.218L124.366 191.392C124.496 190.5 125.295 189.795 126.178 189.616Z" fill="#121414"/>
<path d="M121.72 174.437C122.111 175.414 122.111 176.541 121.713 177.511C120.703 175.703 119.06 174.264 117.143 173.505C117.534 174.851 117.682 176.267 117.589 177.667C116.525 176.11 114.843 174.999 112.996 174.616C113.379 176.087 113.34 177.66 112.879 179.099C111.979 177.401 110.445 176.048 108.646 175.36C107.996 181.572 103.826 187.613 98.3412 190.594C97.1754 192.635 96.2832 194.834 95.7122 197.118C95.2973 196.14 94.9532 195.131 94.6872 194.099C94.0928 191.837 93.8265 189.654 93.858 187.572C93.9673 179.327 98.8263 172.77 107.433 169.898C111.572 168.513 118.927 168.043 122.8 170.031C124.771 171.048 126.399 172.551 127.612 174.35C128.707 175.931 129.49 177.731 129.935 179.608C127.533 177.409 124.74 175.641 121.72 174.437Z" fill="#470A27"/>
<path d="M119.232 173.121C117.87 171.682 115.937 170.798 113.958 170.704C114.123 171.588 114.287 172.472 114.451 173.356C113.356 172.441 111.94 171.901 110.508 171.87C110.562 172.668 110.617 173.466 110.672 174.264C109.444 173.215 107.855 172.597 106.236 172.543C105.227 179.287 100.234 185.226 93.8574 187.572C93.9667 179.327 98.8257 172.77 107.433 169.898C111.572 168.513 118.927 168.043 122.799 170.031C124.771 171.048 126.399 172.551 127.612 174.35C124.857 172.879 121.861 171.854 118.786 171.322C118.934 171.924 119.083 172.519 119.232 173.121Z" fill="#630D30"/>
<path d="M91.7325 220.959C91.7325 220.959 83.2733 224.672 82.1574 227.275C81.042 229.879 73.6053 266.154 73.2334 268.002C73.2334 268.002 92.3832 272.827 99.0766 270.595L100.006 249.773L91.7325 220.959Z" fill="#F574A9"/>
<path d="M91.7324 224.905C91.7324 224.905 100.192 237.455 100.006 239.267C99.8204 241.081 95.8707 267.101 95.8707 267.101C95.8707 267.101 102.888 241.638 102.051 238.989C101.215 236.339 91.7324 224.905 91.7324 224.905Z" fill="#F14A8F"/>
<path d="M107.734 241.496C104.87 246.926 93.0175 248.569 92.3909 248.647L92.3678 248.655C92.3678 248.655 95.2475 242.983 96.4364 238.703C97.6259 234.431 87.9076 219.182 91.2569 212.953C94.5978 206.725 101.092 202.563 101.092 202.563L101.632 203.047L102.469 203.791L102.649 203.947L103.853 204.995L101.89 209.76C101.89 209.76 107.892 216.678 108.494 218.47C109.096 220.261 110.684 235.918 107.734 241.496Z" fill="#300C21"/>
<path d="M102.516 243.076C101.06 244.79 92.8997 248.42 92.3909 248.647L92.3678 248.655C92.3678 248.655 95.2475 242.983 96.4364 238.703C97.6259 234.431 87.9076 219.182 91.2569 212.953C94.5978 206.725 101.092 202.563 101.092 202.563L101.632 203.047L102.469 203.791L102.649 203.947C101.702 205.481 99.9261 208.126 99.2453 209.76C98.0403 212.679 103.431 219.268 103.431 222.201C103.431 225.135 104.018 241.309 102.516 243.076Z" fill="#470A27"/>
<path d="M99.621 229.595C99.9883 232.2 99.4411 240.565 98.7841 241.957C98.1344 243.35 92.3678 248.655 92.3678 248.655C92.3678 248.655 95.2475 242.983 96.4364 238.703C97.6259 234.431 87.9076 219.182 91.2569 212.953C94.5978 206.725 101.092 202.563 101.092 202.563L101.632 203.047C98.6271 206.514 93.4239 212.883 93.2984 214.002C93.1112 215.652 99.2453 226.99 99.621 229.595Z" fill="#630D30"/>
<path d="M121.895 256.551L107.633 257.424C107.633 257.424 101.266 225.587 105.128 216.461C105.708 215.082 106.524 214.225 107.633 214.07C111.993 213.465 115.65 224.796 118.164 235.906C120.531 246.33 121.895 256.551 121.895 256.551Z" fill="#FAB663"/>
<path d="M113.88 226.884C111.508 225.221 108.753 224.106 105.892 223.65C108.145 225.862 110.726 227.038 113.88 226.884Z" fill="#F7923D"/>
<path d="M114.733 234.996C112.36 233.333 109.606 232.217 106.745 231.762C108.998 233.974 111.579 235.151 114.733 234.996Z" fill="#F7923D"/>
<path d="M115.658 243.475C113.286 241.812 110.531 240.697 107.67 240.241C109.922 242.454 112.504 243.629 115.658 243.475Z" fill="#F7923D"/>
<path d="M118.164 235.906C117.796 234.681 117.454 233.448 117.103 232.225C116.05 228.599 114.858 224.934 112.662 221.866C110.817 219.302 108.156 217.188 105.128 216.461C105.708 215.082 106.524 214.224 107.634 214.07C111.993 213.465 115.65 224.795 118.164 235.906Z" fill="#F7923D"/>
<path d="M126.527 247.759C126.475 250.56 126.416 253.098 126.374 254.782C126.345 255.951 125.577 256.878 124.64 256.878H115.533C114.594 256.878 113.827 255.951 113.798 254.782C113.756 253.098 113.697 250.56 113.644 247.759C113.579 244.346 113.532 240.551 113.544 237.447C113.561 234.116 113.644 231.593 113.851 231.181C114.547 229.835 116.919 228.49 116.919 228.49L117.48 217.245H122.686L123.252 228.49C123.252 228.49 125.625 229.835 126.321 231.181C126.527 231.593 126.611 234.116 126.622 237.447C126.64 240.551 126.593 244.346 126.527 247.759Z" fill="#2EAE7D"/>
<path d="M122.752 218.19H117.42C117.031 218.19 116.715 217.875 116.715 217.485V216.879C116.715 216.489 117.031 216.174 117.42 216.174H122.752C123.14 216.174 123.456 216.489 123.456 216.879V217.485C123.456 217.875 123.14 218.19 122.752 218.19Z" fill="#363950"/>
<path d="M126.527 247.759H113.644C113.579 244.346 113.532 240.551 113.544 237.447H126.622C126.64 240.551 126.593 244.346 126.527 247.759Z" fill="#20795A"/>
<path d="M146.813 226.438C147.009 225.254 147.135 224.02 146.79 222.871C146.446 221.721 145.531 220.67 144.343 220.497C142.794 220.27 141.412 221.56 140.702 222.956C139.798 224.736 139.566 226.798 139.711 228.79C139.842 230.595 140.215 236.907 142.817 235.515C145.327 234.173 146.402 228.924 146.813 226.438Z" fill="#20795A"/>
<path d="M140.645 242.001L141.488 241.91C141.624 241.407 143 235.843 143.118 235.332C143.814 232.275 144.154 229.134 144.121 225.99C144.12 225.485 143.333 225.479 143.34 225.983C143.371 229.264 142.997 232.528 142.227 235.702C142.125 236.118 140.765 241.588 140.645 242.001Z" fill="#51C292"/>
<path d="M153.008 226.576C153.95 225.833 154.971 225.128 156.143 224.875C157.316 224.622 158.679 224.915 159.403 225.872C160.35 227.12 159.887 228.954 159.007 230.248C157.883 231.899 156.191 233.097 154.375 233.931C152.73 234.687 147.023 237.407 146.986 234.456C146.95 231.611 151.029 228.136 153.008 226.576Z" fill="#20795A"/>
<path d="M141.773 242.073L141.845 242.064L142.968 241.935L142.996 241.93C143.487 241.426 146.595 235.538 147.105 235.07C149.516 232.858 152.195 230.955 155.079 229.401C155.524 229.159 155.144 228.477 154.697 228.713C151.932 230.204 149.344 232.014 147.007 234.103C146.093 234.914 142.607 241.18 141.773 242.073Z" fill="#51C292"/>
<path d="M143.791 229.571C144.878 229.898 145.963 230.352 146.765 231.155C147.848 232.24 148.282 233.861 148.149 235.387C147.868 238.625 144.966 241.427 141.721 241.593C138.654 241.752 135.439 239.364 134.455 236.463C133.602 233.951 135.604 230.491 137.918 229.531C139.775 228.761 141.914 229.008 143.791 229.571Z" fill="#E83847"/>
<path d="M142.259 231.214C142.492 228.858 143.348 226.567 144.715 224.634C145.062 224.883 145.365 225.189 145.712 225.439C144.668 227.403 143.071 229.143 142.259 231.214Z" fill="#312A2A"/>
<path d="M142.352 230.725C142.831 229.262 142.679 227.603 141.941 226.25C141.204 224.898 139.891 223.872 138.4 223.483C137.941 224.896 137.934 226.437 138.62 227.755C139.307 229.072 140.931 230.293 142.352 230.725Z" fill="#2EAE7D"/>
<path d="M130.359 229.548C131.392 229.076 132.507 228.702 133.64 228.777C135.17 228.879 136.564 229.811 137.471 231.046C139.394 233.666 139.059 237.686 136.73 239.951C134.528 242.091 130.536 242.416 127.884 240.885C125.587 239.558 124.811 235.637 125.917 233.388C126.805 231.586 128.577 230.362 130.359 229.548Z" fill="#F1435B"/>
<path d="M130.29 231.792C128.913 229.866 128.046 227.58 127.8 225.225C128.225 225.184 128.655 225.214 129.08 225.173C129.59 227.338 129.537 229.699 130.29 231.792Z" fill="#312A2A"/>
<path d="M130.04 231.363C129.435 229.946 128.226 228.8 126.78 228.269C125.333 227.74 123.67 227.834 122.293 228.524C122.879 229.889 123.891 231.053 125.275 231.59C126.66 232.128 128.685 231.974 130.04 231.363Z" fill="#20795A"/>
<path d="M130.082 222.419C130.056 222.132 130.036 221.835 130.131 221.562C130.225 221.29 130.463 221.047 130.752 221.037C131.128 221.025 131.4 221.383 131.584 221.713C132.17 222.755 132.585 223.893 132.81 225.067C132.902 223.39 133.491 221.744 134.483 220.389C134.805 219.95 135.419 219.513 135.831 219.868C136.08 220.083 136.073 220.466 136.036 220.794C135.89 222.069 135.601 223.327 135.177 224.537C135.895 223.593 137.018 222.97 138.199 222.859C138.517 222.828 138.91 222.877 139.04 223.17C139.159 223.44 138.974 223.743 138.787 223.972C138.043 224.878 137.111 225.627 136.066 226.157C136.553 225.917 137.071 225.672 137.61 225.721C138.15 225.77 138.69 226.241 138.601 226.776C138.533 227.194 138.136 227.467 137.765 227.671C136.625 228.297 132.79 230.071 131.596 229.066C131.03 228.59 130.833 226.755 130.67 226.057C130.39 224.86 130.193 223.643 130.082 222.419Z" fill="#2EAE7D"/>
<path d="M135.212 231.6C135.098 232.72 134.629 233.769 134.072 234.761C133.992 234.906 133.901 235.056 133.813 235.198C133.755 235.307 133.693 235.405 133.632 235.509C132.175 237.935 130.55 240.41 128.737 242.703C128.633 242.836 128.525 242.971 128.416 243.101C127.308 244.48 126.125 245.788 124.868 246.978C123.073 248.677 122.173 247.797 122.589 245.662C122.736 244.902 122.901 244.146 123.09 243.39C123.124 243.227 123.167 243.059 123.206 242.893C123.628 241.208 124.134 239.537 124.719 237.897C124.778 237.739 124.837 237.582 124.896 237.423C125.204 236.589 125.533 235.761 125.884 234.947C125.949 234.791 126.017 234.64 126.088 234.488C126.49 233.575 126.92 232.675 127.373 231.789C127.713 231.129 128.083 230.461 128.52 229.863C128.631 229.71 128.745 229.561 128.864 229.427C129.129 229.108 129.424 228.814 129.749 228.557C130.815 227.732 132.335 227.356 133.532 227.975C134.792 228.623 135.35 230.193 135.212 231.6Z" fill="#F68640"/>
<path d="M124.752 244.074C124.2 243.849 123.642 243.62 123.089 243.391C123.123 243.227 123.166 243.059 123.206 242.893C123.784 243.128 124.362 243.365 124.939 243.601C125.239 243.73 125.054 244.197 124.752 244.074Z" fill="#F46F2E"/>
<path d="M128.736 242.703C128.633 242.836 128.525 242.971 128.416 243.101C127.307 242.521 126.17 241.991 125.012 241.515C124.71 241.392 124.897 240.919 125.199 241.041C126.404 241.536 127.585 242.092 128.736 242.703Z" fill="#F46F2E"/>
<path d="M128.112 239.598C127.033 238.933 125.896 238.365 124.719 237.897C124.778 237.739 124.837 237.582 124.896 237.423C126.117 237.905 127.293 238.5 128.413 239.193C128.692 239.365 128.391 239.771 128.112 239.598Z" fill="#F46F2E"/>
<path d="M130.64 237.036C129.135 236.168 127.537 235.468 125.883 234.947C125.949 234.791 126.017 234.64 126.088 234.488C127.776 235.022 129.403 235.738 130.944 236.628C131.224 236.788 130.919 237.196 130.64 237.036Z" fill="#F46F2E"/>
<path d="M134.072 234.761C133.991 234.906 133.901 235.056 133.812 235.198C132.335 234.264 130.713 233.575 129.006 233.17C128.696 233.094 128.749 232.59 129.07 232.667C130.841 233.089 132.531 233.798 134.072 234.761Z" fill="#F46F2E"/>
<path d="M132.893 231.344C132.8 231.462 132.656 231.463 132.535 231.4C131.28 230.701 129.924 230.178 128.52 229.863C128.631 229.71 128.744 229.561 128.863 229.427C130.249 229.766 131.585 230.292 132.837 230.987C132.956 231.058 132.966 231.246 132.893 231.344Z" fill="#F46F2E"/>
<path d="M104.978 295.233L114.134 302.295L152.53 295.507L148.904 235.735L144.814 239.732L138.772 236.851L136.076 241.313L130.492 238.152L127.244 242.522L122.631 239.918L120.084 243.916L115.797 241.22L113.362 246.003L111.509 242.893L109.767 245.031L107.351 242.986L104.978 246.003V295.233Z" fill="#C07E53"/>
<path d="M114.134 302.295L104.978 295.233V246.003L107.351 242.986L109.767 245.031L111.509 242.893L113.362 246.003L114.134 302.295Z" fill="#A55D39"/>
<path d="M128.732 265.433C129.287 266.836 119.227 269.551 119.227 269.551L118.946 272.433L123.257 271.692L129.293 273.738C129.293 273.738 129.422 274.971 129.489 276.49C129.499 276.68 129.504 276.873 129.511 277.069C129.542 277.976 129.541 278.941 129.474 279.777C129.471 279.858 129.462 279.94 129.457 280.019C129.415 280.435 129.355 280.813 129.276 281.126C129.185 281.475 129.066 281.742 128.909 281.899L123.971 281.362C123.971 281.362 119.103 286.179 118.1 286.458C117.702 286.567 115.967 286.054 114.021 285.396C113.088 285.079 109.468 283.817 108.56 283.486L107.925 279.032L111.259 274.39C111.632 273.827 112.141 273.091 112.736 272.291L112.735 272.289C113.027 271.895 113.341 271.487 113.668 271.076C114.856 269.585 116.24 268.069 117.56 267.141C118.119 266.745 118.666 266.459 119.182 266.326C122.738 265.407 128.179 264.033 128.732 265.433Z" fill="#C7614F"/>
<path d="M129.473 279.777C129.471 279.858 129.462 279.94 129.457 280.019C129.256 279.969 128.994 279.902 128.677 279.824C127.957 279.648 126.982 279.426 125.922 279.208C124.861 278.998 123.89 278.872 123.15 278.859C122.964 278.858 122.795 278.858 122.645 278.856C122.495 278.869 122.366 278.877 122.26 278.888C122.043 278.9 121.918 278.907 121.918 278.907C121.918 278.907 122.026 278.844 122.23 278.737C122.329 278.684 122.456 278.619 122.603 278.549C122.754 278.493 122.925 278.432 123.122 278.368C123.897 278.123 125.046 277.999 126.212 278.23C127.372 278.47 128.302 278.953 128.918 279.364C129.145 279.518 129.329 279.658 129.473 279.777Z" fill="#974237"/>
<path d="M129.489 276.49C129.5 276.68 129.504 276.873 129.511 277.069L129.385 277.04C128.666 276.865 127.69 276.643 126.631 276.427C125.568 276.215 124.598 276.088 123.859 276.076C123.672 276.075 123.505 276.072 123.358 276.073C123.206 276.084 123.076 276.096 122.97 276.102C122.752 276.117 122.63 276.125 122.63 276.125C122.63 276.125 122.736 276.063 122.937 275.954C123.038 275.903 123.164 275.836 123.312 275.767C123.462 275.71 123.637 275.648 123.83 275.585C124.61 275.34 125.758 275.215 126.921 275.449C127.998 275.668 128.879 276.1 129.489 276.49Z" fill="#974237"/>
<path d="M112.114 284.737C112.114 284.737 81.6928 288.072 79.3224 287.096C76.9519 286.12 75.5576 283.47 75.5576 283.47L76.4424 268.746C76.4424 268.746 88.7863 271.059 90.8866 271.046L89.0878 275.528L109.533 277.069L112.114 284.737Z" fill="#C7614F"/>
<path d="M148.568 265.123C148.373 266.14 152.289 269.6 151.1 268.54C149.91 267.481 144.017 265.587 143.46 266.613C142.905 267.64 149.484 273.645 149.484 273.645C149.484 273.645 143.323 270.164 142.649 272.352C142.429 273.067 143.104 274.15 144.106 275.282C142.414 275.222 141.037 275.481 141.369 276.581C142.151 279.17 149.632 280.158 149.632 280.158C158.398 280.395 155.195 266.855 155.195 266.855C155.195 266.855 148.761 264.105 148.568 265.123Z" fill="#C7614F"/>
<path d="M143.115 200.927L154.969 190.034L158.806 198.132L143.115 200.927Z" fill="white"/>
<path d="M138.027 199.714L136.836 189.669L142.362 190.382L138.027 199.714Z" fill="white"/>
<path d="M143.63 207.966L154.367 207.984L153.887 213.071L143.63 207.966Z" fill="white"/>
</g>
</svg>
